
<svg version="1.1" id="Слой_1" xmlns="http://www.w3.org/2000/svg" xmlns:xlink="http://www.w3.org/1999/xlink" x="0px" y="0px"
	 viewBox="0 0 512 512" style="enable-background:new 0 0 512 512;" xml:space="preserve">

	<path class="st0" d="M391.8,391.8c-17.6,17.6-38.2,31.5-61.1,41.2c-23.7,10-48.8,15.1-74.8,15.1s-51.1-5.1-74.8-15.1
		c-22.9-9.7-43.4-23.5-61.1-41.2S88.7,353.6,79,330.8c-10-23.7-15.1-48.8-15.1-74.8S69,204.9,79,181.2c9.7-22.9,23.5-43.4,41.2-61.1
		s38.2-31.5,61.1-41.2c23.7-10,48.8-15.1,74.8-15.1c25.9,0,51.1,5.1,74.8,15.1c13.4,5.7,26.1,12.8,37.8,21.3
		c-2.3,4.4-3.6,9.4-3.6,14.7c0,17.7,14.3,32,32,32c5.3,0,10.3-1.3,14.7-3.6c8.5,11.7,15.6,24.4,21.3,37.8
		c10,23.7,15.1,48.8,15.1,74.8c0,25.9-5.1,51.1-15.1,74.8C423.3,353.6,409.5,374.2,391.8,391.8 M423.6,132.8
		c3.4-5.1,5.4-11.2,5.4-17.8c0-17.7-14.3-32-32-32c-6.6,0-12.7,2-17.8,5.4C344.7,63,302.1,48,256,48C141.1,48,48,141.1,48,256
		c0,114.9,93.1,208,208,208c114.9,0,208-93.1,208-208C464,209.9,449,167.3,423.6,132.8z"/>
	<path class="st0" d="M323.9,188.1c37.5,37.5,37.5,98.3,0,135.8c-37.5,37.5-98.3,37.5-135.8,0c-37.5-37.5-37.5-98.3,0-135.8
		C225.6,150.6,286.4,150.6,323.9,188.1"/>
</svg>
